<?xml version="1.0" standalone="no"?>
<!DOCTYPE svg PUBLIC "-//W3C//DTD SVG 1.1//EN" "http://www.w3.org/Graphics/SVG/1.1/DTD/svg11.dtd" >
<svg xmlns="http://www.w3.org/2000/svg" xmlns:xlink="http://www.w3.org/1999/xlink" version="1.1">
<metadata></metadata>
<defs>
<font id="aliquamregular" horiz-adv-x="1089" >
<font-face units-per-em="2048" ascent="1638" descent="-410" />
<missing-glyph horiz-adv-x="419" />
<glyph horiz-adv-x="0" />
<glyph unicode="&#xd;" horiz-adv-x="419" />
<glyph unicode=" "  horiz-adv-x="419" />
<glyph unicode="&#x09;" horiz-adv-x="419" />
<glyph unicode="&#xa0;" horiz-adv-x="419" />
<glyph unicode="!" horiz-adv-x="229" d="M37 0v264h115v-264h-115zM37 350v1098h115v-1098h-115z" />
<glyph unicode="&#x22;" horiz-adv-x="438" d="M45 940v508h115v-508h-115zM258 940v508h115v-508h-115z" />
<glyph unicode="#" horiz-adv-x="1040" d="M0 438v115h250q6 37 10 68.5t8 62.5t8.5 62.5t10.5 70.5h-234v115h252q16 111 30.5 225.5t29.5 224.5h116l-59 -450h248q14 111 28.5 225.5t28.5 224.5h117l-60 -450h215v-115h-235q-10 -70 -17.5 -130t-17.5 -134h217v-115h-233q-14 -106 -29.5 -219t-30.5 -219h-114 l57 438h-248q-16 -106 -30.5 -219t-28.5 -219h-117l59 438h-231zM367 553h247l35 264h-248q-10 -70 -17 -130t-17 -134z" />
<glyph unicode="$" horiz-adv-x="1163" d="M16 530h115q0 -211 90 -322.5t289 -121.5v612q-207 47 -287 95q-166 98 -166 294q0 96 44 175t116 133q55 35 131 57.5t162 26.5v84h113v-88q436 -25 454 -488h-112q-4 174 -93.5 266.5t-248.5 108.5v-574q123 -31 198.5 -55t110.5 -43q170 -96 170 -315 q0 -207 -170 -316q-70 -43 -140.5 -65.5t-168.5 -26.5v-168h-113v172q-106 10 -196.5 44t-151.5 94q-145 133 -146 421zM170 1087q0 -131 121 -198q57 -39 219 -72v549q-72 -4 -125 -20.5t-100 -45.5h2q-117 -74 -117 -213zM623 82q137 8 239 70q59 41 93 97t34 128 t-33.5 127t-93.5 90q-59 33 -239 80v-592z" />
<glyph unicode="%" horiz-adv-x="1417" d="M35 1034q0 156 78 256q90 115 249 115q158 0 248 -111q41 -47 62.5 -113.5t21.5 -144.5q0 -154 -88 -256q-88 -106 -244 -106q-160 0 -247 108q-80 94 -80 252zM129 -66l956 1514h134l-955 -1514h-135zM150 1034q0 -111 55 -178q53 -70 157 -70t161 71t57 177 q0 117 -54 187q-55 70 -164 69q-111 0 -161 -69q-51 -66 -51 -187zM674 340q0 160 78 258q45 57 108.5 84t140.5 27q160 0 248 -109q84 -96 84 -258q0 -150 -88 -254q-90 -111 -244 -111q-160 0 -247 109q-41 47 -60.5 111.5t-19.5 142.5zM788 340q0 -111 56 -178 q51 -70 157 -70q49 0 90.5 18.5t71.5 53.5q25 33 40.5 79t15.5 97q0 115 -54.5 185.5t-163.5 70.5t-161 -72q-51 -66 -52 -184z" />
<glyph unicode="&#x26;" horiz-adv-x="1161" d="M29 346q0 158 133 295q35 35 88 76t125 88q-16 20 -31.5 42.5t-30.5 43.5q-10 12 -20 23.5t-21 25.5q-80 117 -79 215q0 66 24.5 119t69.5 94t101 60.5t120 19.5q131 0 223 -80q92 -82 92 -213q0 -133 -110 -244q-16 -16 -59.5 -50t-112.5 -83q39 -51 74.5 -95t69.5 -87 t70 -88t76 -98q14 51 21.5 124.5t11.5 170.5h115q-4 -129 -21.5 -233.5t-42.5 -170.5l234 -301h-145l-148 186q-72 -115 -169 -167t-232 -52q-168 0 -291 103v-2q-135 113 -135 278zM143 346q0 -119 95 -192q90 -72 217 -72q111 0 190.5 48t136.5 157l-336 428 q-78 -47 -126 -85t-70 -59q-106 -102 -107 -225zM307 1157q0 -61 68 -162q6 -6 29.5 -37.5t70.5 -93.5q51 37 88 65.5t60 51.5q88 86 88 174q0 80 -58.5 129t-142.5 49q-86 0 -144.5 -47t-58.5 -129z" />
<glyph unicode="'" horiz-adv-x="237" d="M41 940v508h115v-508h-115z" />
<glyph unicode="(" horiz-adv-x="327" d="M-10 580q0 457 235 899h125q-248 -461 -248 -899q0 -461 250 -920h-125q-238 469 -237 920z" />
<glyph unicode=")" horiz-adv-x="329" d="M-35 1479h125q238 -465 238 -918t-236 -901h-123q246 461 246 901q0 461 -250 918z" />
<glyph unicode="*" horiz-adv-x="630" d="M-16 1161l32 109l228 -78v256h112v-256q59 18 125 40.5t117 39.5l25 -113l-232 -76q35 -47 76 -100t74 -96l-88 -70l-154 199q-37 -47 -78 -98.5t-76 -92.5l-90 74l158 186q-57 18 -118.5 39t-110.5 37z" />
<glyph unicode="+" horiz-adv-x="1036" d="M-18 465v117h460v467h115v-467h459v-117h-459v-465h-115v465h-460z" />
<glyph unicode="," horiz-adv-x="167" d="M-14 -137q49 49 49 219v36.5t-2 45.5t-2 59.5v40.5h114v-225q0 -186 -159 -303v127z" />
<glyph unicode="-" horiz-adv-x="526" d="M47 496v114h410v-114h-410z" />
<glyph unicode="." horiz-adv-x="237" d="M41 0v264h115v-264h-115z" />
<glyph unicode="/" horiz-adv-x="714" d="M-43 -33l655 1512h119l-653 -1512h-121z" />
<glyph unicode="0" horiz-adv-x="1171" d="M39 690q0 289 108 475q137 240 418 240q133 0 239.5 -63.5t176.5 -176.5q53 -92 82 -214t29 -261q0 -141 -29 -261t-82 -212q-70 -113 -176.5 -176.5t-239.5 -63.5q-281 0 -418 240q-55 92 -81.5 211t-26.5 262zM152 690q0 -123 23.5 -227.5t64.5 -181.5 q53 -90 134 -139.5t191 -49.5q106 0 188.5 49t135.5 140q41 78 64.5 182t23.5 227q0 252 -86 410q-109 190 -326 190q-221 0 -325 -190q-88 -156 -88 -410z" />
<glyph unicode="1" horiz-adv-x="499" d="M-31 991v131l373 260h90v-1382h-115l-4 1225q-41 -29 -87 -59.5t-91 -61.5t-87 -59.5t-79 -53.5z" />
<glyph unicode="2" horiz-adv-x="1013" d="M37 0q0 233 219 414q47 35 96 71.5t99 71.5q49 35 96 71t96 70l-2 -2q195 160 195 320q0 127 -95 205h2q-94 70 -229 69q-174 0 -260 -100q-82 -94 -82 -311h-113q0 248 114 387t341 139q182 0 303 -96v2q131 -106 131 -295q0 -207 -217 -393q-41 -29 -78 -57.5 t-78 -57.5q-53 -39 -108 -80t-109 -80q-162 -125 -198 -233h823v-115h-946z" />
<glyph unicode="3" horiz-adv-x="1101" d="M39 442q0 16 1 42t1 34h115l-2 -82q-10 -166 104 -258q53 -41 128 -63.5t163 -22.5q150 0 252 80q109 86 108 227q0 174 -125 238q-47 25 -132 36t-206 11v115q233 0 318 39q121 55 121 209q0 59 -27 105t-74 81q-96 57 -229 57q-172 0 -268.5 -99t-96.5 -290h-114 q0 244 127 374t352 130q90 0 166 -21.5t133 -58.5q70 -47 107.5 -118.5t37.5 -159.5q0 -102 -50 -182.5t-128 -123.5q96 -45 149.5 -132t53.5 -210q0 -94 -39 -174t-111 -139q-131 -109 -325 -109q-231 0 -367 115q-78 61 -112.5 151.5t-30.5 198.5z" />
<glyph unicode="4" horiz-adv-x="1028" d="M-16 340v94l665 948h105v-927h233v-115h-233v-340h-115v340h-655zM133 455h506v186t-1 169t-1 170v191q-66 -94 -127 -181t-122.5 -174t-124 -176t-130.5 -185z" />
<glyph unicode="5" horiz-adv-x="1044" d="M29 494h114q0 -188 99.5 -295t273.5 -107q172 0 268 103q102 106 103 276q0 168 -103 270q-102 104 -268 105q-104 0 -192 -45h2q-90 -47 -148 -154h-119l154 735h733v-114h-639q-12 -61 -21.5 -105.5t-17.5 -86.5t-17 -88t-24 -111q113 86 289 86q104 0 192.5 -34 t155.5 -106q135 -139 135 -352q0 -219 -135 -356q-129 -137 -348 -138q-219 0 -354 129q-133 131 -133 388z" />
<glyph unicode="6" horiz-adv-x="1093" d="M37 653q0 293 102 492q72 129 175.5 194.5t246.5 65.5q164 0 287 -98q59 -49 100 -127t58 -183h-115q-31 139 -118 216t-214 77q-236 0 -334 -235q-27 -59 -43 -126t-24 -153q18 23 38.5 42.5t45.5 37.5q131 100 295 100q201 0 342 -145q143 -145 143 -346 q0 -197 -143 -346q-141 -141 -342 -142q-500 0 -500 676zM166 465q0 -78 26.5 -142.5t79.5 -121.5q106 -109 265 -109q156 0 262 109q108 110 108 264q0 156 -108 266q-106 109 -262 109q-158 0 -265 -109q-53 -57 -79.5 -122.5t-26.5 -143.5z" />
<glyph unicode="7" horiz-adv-x="901" d="M-18 1268v114h901v-104q-291 -295 -428 -571q-156 -311 -156 -707h-115q0 705 531 1268h-733z" />
<glyph unicode="8" horiz-adv-x="1126" d="M35 403q0 129 61.5 222.5t169.5 138.5q-43 25 -78 59q-88 88 -88 213q0 190 140 285h-2q111 84 305 84q94 0 171 -20.5t134 -63.5h-2q139 -96 139 -285q0 -125 -88 -213q-16 -16 -37.5 -32.5t-42.5 -28.5q111 -41 172.5 -133.5t61.5 -225.5q0 -213 -158 -327 q-139 -98 -350 -99q-211 0 -353 99q-156 115 -155 327zM150 403q0 -158 116 -239l-2 2q106 -74 279 -74q86 0 155.5 18.5t122.5 53.5q115 85 115 239q0 150 -117 228q-100 66 -276 65q-86 0 -156 -15t-121 -50q-117 -74 -116 -228zM215 1036q0 -113 102 -172q94 -53 226 -53 q129 0 225 53q104 63 104 172q0 131 -96 199v-2q-84 57 -233 57q-147 0 -236 -57v2q-92 -66 -92 -199z" />
<glyph unicode="9" horiz-adv-x="1097" d="M35 918q0 199 141 344q141 143 344 143q502 0 502 -676q0 -147 -26.5 -270t-77.5 -221q-72 -129 -175.5 -195t-246.5 -66q-170 0 -291 97q-123 102 -154 311h115q31 -141 117 -217t215 -76q236 0 333 236q53 119 66 282q-35 -45 -84 -84q-131 -100 -293 -100 q-203 0 -342 145q-143 145 -143 347zM150 918q0 -158 108 -267q104 -111 262 -110q160 0 262 110q53 55 81 121t28 146q0 150 -109 264q-106 109 -262 108q-156 0 -262 -108q-109 -111 -108 -264z" />
<glyph unicode=":" horiz-adv-x="143" d="M41 0v264h115v-264h-115zM41 799v264h115v-264h-115z" />
<glyph unicode=";" horiz-adv-x="159" d="M-31 -137q49 49 49 219v36.5t-2 45.5t-2 59.5v40.5h115v-225q0 -186 -160 -303v127zM14 799v264h115v-264h-115z" />
<glyph unicode="&#x3c;" horiz-adv-x="1101" d="M-18 475v96l1042 514v-124l-883 -437q217 -109 441.5 -219t441.5 -217v-127z" />
<glyph unicode="=" horiz-adv-x="1077" d="M2 279v116h1034v-116h-1034zM2 651v117h1034v-117h-1034z" />
<glyph unicode="&#x3e;" horiz-adv-x="1101" d="M37 -39v127l883 436q-219 109 -442.5 219.5t-440.5 217.5v124l1042 -514v-96z" />
<glyph unicode="?" horiz-adv-x="884" d="M27 1110q0 129 77 225q123 143 338 144q164 0 283 -84q66 -51 97.5 -119t31.5 -152q0 -158 -106 -282l-93 -90q-23 -23 -43 -45.5t-43 -44.5q-41 -55 -64.5 -134t-23.5 -178h-114q0 229 104 369q29 31 61.5 63.5t61.5 63.5q16 14 29.5 29.5t29.5 31.5q88 94 88 217 q0 55 -23.5 101.5t-64.5 81.5q-41 27 -93 43t-118 16q-166 0 -254 -106q-51 -68 -51 -150q0 -29 8.5 -70t20.5 -94h-113q-27 104 -26 164zM367 0v264h114v-264h-114z" />
<glyph unicode="@" horiz-adv-x="1521" d="M43 717q0 305 211 516q215 211 514 211q279 0 461 -166q194 -177 194 -451q0 -190 -118 -368q-139 -207 -330 -207q-47 0 -82 23.5t-53 58.5q-47 -39 -107.5 -60.5t-132.5 -21.5q-127 0 -215 100q-39 45 -60.5 100.5t-21.5 118.5q0 102 34 201.5t99 190.5q70 88 164 144 t193 56q76 0 143.5 -26.5t112.5 -83.5q8 20 14 38.5t12 34.5h123q-16 -43 -36.5 -95t-42 -105.5t-42 -104.5t-39.5 -94v2q-102 -272 -102 -323q0 -37 43 -37q131 0 235 159q94 152 95 299q0 111 -42 203t-114 162q-154 137 -385 137q-256 0 -434 -178t-178 -434 q0 -279 168 -453q166 -172 444 -172q154 0 293 80q135 76 237 223h134q-68 -111 -143 -190.5t-161 -128.5q-172 -98 -360 -99q-324 0 -526 205q-199 211 -199 535zM418 571q0 -88 55 -145h-2q51 -57 137 -57q53 0 101.5 25.5t89.5 68.5q33 37 61.5 94t57.5 129 q18 53 39.5 113.5t37.5 118.5q-41 131 -211 131q-152 0 -262 -160h2q-106 -156 -106 -318zM995 918l4 8v-21q-2 4 -2 6t-2 7z" />
<glyph unicode="A" horiz-adv-x="1282" d="M-14 0l594 1477h104l578 -1477h-127l-183 461h-651q-45 -111 -94 -231.5t-90 -229.5h-131zM344 578h563q-37 98 -70.5 183t-66.5 169t-66.5 171t-72.5 189q-74 -182 -142.5 -352t-144.5 -360z" />
<glyph unicode="B" horiz-adv-x="1228" d="M55 0v1477h635q184 0 303 -97q125 -106 125 -290q0 -72 -22.5 -133.5t-69.5 -114.5q-20 -20 -42.5 -37t-45.5 -31q66 -29 119 -84h-2q106 -106 106 -270q0 -207 -153 -324q-129 -96 -342 -96h-611zM172 117h512q162 0 258 73q102 76 102 228q0 145 -102 221 q-47 35 -109.5 53.5t-142.5 18.5h-518v-594zM172 827h518q135 0 221 68q90 70 90 195q0 63 -23.5 115t-62.5 89q-90 66 -225 66h-518v-533z" />
<glyph unicode="C" horiz-adv-x="1409" d="M35 727q0 330 174 547q192 235 513 235h3q219 0 389 -129q193 -147 205 -401h-117q-14 201 -162 311q-137 102 -315 103q-260 0 -424 -199q-149 -187 -149 -463q0 -270 145 -452q152 -195 403 -195q223 0 367 143q66 66 109 166.5t59 233.5h119q-23 -158 -73 -279 t-132 -203q-178 -178 -449 -178q-307 0 -495 236q-170 207 -170 524z" />
<glyph unicode="D" horiz-adv-x="1273" d="M55 0v1477h525q317 0 483 -220q145 -199 145 -518q0 -330 -174 -530q-188 -209 -514 -209h-465zM172 117h356q135 0 240.5 46t181.5 130q142 165 142 446q0 287 -121 449q-127 172 -402 172h-397v-1243z" />
<glyph unicode="E" horiz-adv-x="1060" d="M53 0v1477h998v-117h-881v-533h829v-116h-829v-594h889v-117h-1006z" />
<glyph unicode="F" horiz-adv-x="983" d="M53 0v1477h932v-117h-815v-533h737v-116h-737v-711h-117z" />
<glyph unicode="G" horiz-adv-x="1427" d="M35 739q0 322 178 537h-2q190 233 512 233q117 0 220.5 -34.5t184.5 -98.5q86 -68 139.5 -171t73.5 -242h-116q-41 219 -172 323q-137 106 -330 107q-260 0 -422 -193q-149 -179 -149 -457q0 -295 147 -467q153 -192 427 -192h3q250 0 385 162q57 68 89 163t38 205h-536 v117h651l4 -78q0 -127 -22.5 -219t-57.5 -159.5t-81 -115.5t-95 -85q-176 -106 -381 -107q-328 0 -516 232h2q-174 211 -174 540z" />
<glyph unicode="H" horiz-adv-x="1271" d="M55 0v1477h117v-650h893v650h117v-1477h-117v711h-893v-711h-117z" />
<glyph unicode="I" horiz-adv-x="237" d="M41 0v1477h117v-1477h-117z" />
<glyph unicode="J" horiz-adv-x="874" d="M-8 393q0 20 1 58t3 59h108q0 -14 -1 -48t-1 -46q0 -72 13.5 -133.5t29.5 -96.5q29 -47 91.5 -74.5t148.5 -27.5q172 0 238 84q65 87 65 259v5v928h-588v117h705v-1074q0 -436 -420 -436q-117 0 -202 40t-132 112q-59 96 -59 274z" />
<glyph unicode="K" horiz-adv-x="1290" d="M57 0v1477h117v-803q225 201 453.5 402.5t453.5 400.5h174l-716 -639l739 -838h-156l-673 764q-72 -63 -137.5 -121.5t-137.5 -124.5v-518h-117z" />
<glyph unicode="L" horiz-adv-x="976" d="M53 0v1477h117v-1360h809v-117h-926z" />
<glyph unicode="M" horiz-adv-x="1540" d="M59 0v1477h127l566 -1291q139 319 281.5 645t279.5 646h127v-1477h-115l-4 1204q-133 -301 -264 -604t-260 -600h-95l-526 1202v-1202h-117z" />
<glyph unicode="N" horiz-adv-x="1271" d="M55 0v1477h117l893 -1268v1268h117v-1477h-117l-893 1268v-1268h-117z" />
<glyph unicode="O" horiz-adv-x="1466" d="M37 739q0 324 168 535q192 235 507 235h3q315 0 508 -235q168 -211 168 -535q0 -326 -168 -536q-193 -236 -508 -236q-317 0 -510 236q-168 211 -168 536zM154 739q0 -283 141 -463q153 -192 417 -192h3q264 0 418 192q141 180 141 463t-141 461q-156 193 -418 193 q-264 0 -420 -193q-141 -178 -141 -461z" />
<glyph unicode="P" horiz-adv-x="1124" d="M55 0v1477h598q209 0 330 -103q131 -110 131 -319q0 -256 -209 -357h2q-107 -61 -238 -61h-20h-479v-637h-115zM170 754h483q154 0 246 77q98 81 98 224q0 305 -344 305h-483v-606z" />
<glyph unicode="Q" horiz-adv-x="1439" d="M20 739q0 322 173 535q185 235 502 235h3q319 0 508 -235q168 -211 168 -535q0 -373 -217 -587q-4 -6 -11 -14.5t-13 -12.5q-152 -143 -363 -156q23 -88 219 -88q8 0 26.5 1t38 2t38 3t28.5 2l-37 -118q-18 -2 -51 -3t-49 -1q-309 0 -336 202q-141 8 -254.5 67.5 t-199.5 166.5q-84 106 -128.5 242.5t-44.5 293.5zM137 739q0 -276 144 -463q149 -192 414 -192h3q98 0 189.5 33t156.5 88q6 4 14.5 12t12.5 12q189 178 189 510q0 281 -144 461q-156 193 -418 193q-268 0 -417 -193q-143 -184 -144 -461z" />
<glyph unicode="R" horiz-adv-x="1191" d="M55 0v1477h604q463 0 463 -398q0 -299 -301 -401q70 -162 148 -341t145 -337h-131l-285 655h-526v-655h-117zM172 774h479q152 0 254 78l-2 -2q103 83 103 233q0 276 -336 277h-498v-586z" />
<glyph unicode="S" horiz-adv-x="1200" d="M29 541h116q0 -457 465 -457q168 0 283 72q59 41 93 99t34 130q0 188 -219 262h2q-18 4 -39 10.5t-39 10.5q-94 25 -193.5 50t-197.5 48q-264 94 -264 344q0 207 168 315q129 84 344 84q510 0 530 -501h-117q-12 385 -413 385q-172 0 -275 -64q-121 -74 -121 -219 q0 -176 220 -244h-3q57 -16 114.5 -29.5t115.5 -29.5q57 -14 119.5 -29.5t119.5 -29.5q265 -97 265 -365q0 -102 -45 -183t-129 -139q-72 -45 -161 -69.5t-192 -24.5q-135 0 -237.5 33t-179.5 96q-164 141 -164 445z" />
<glyph unicode="T" horiz-adv-x="1101" d="M-20 1360v117h1114v-117h-500v-1360h-115v1360h-499z" />
<glyph unicode="U" horiz-adv-x="1222" d="M47 561v916h117v-916q0 -477 430 -477t430 477v916h117v-916q0 -139 -32 -245.5t-99 -184.5q-145 -164 -416 -164q-272 0 -416 164q-131 156 -131 430z" />
<glyph unicode="V" horiz-adv-x="1230" d="M-14 1477h120l502 -1276q121 317 242 638.5t240 637.5h122l-557 -1477h-98z" />
<glyph unicode="W" horiz-adv-x="1925" d="M20 1477h123l367 -1250q92 311 186.5 626.5t184.5 623.5h114l381 -1252q90 311 179.5 627.5t177.5 624.5h118l-424 -1477h-110l-381 1253q-92 -311 -186.5 -627.5t-184.5 -625.5h-110z" />
<glyph unicode="X" horiz-adv-x="1294" d="M-4 0l563 758q-61 82 -130 174t-138.5 186t-137 185.5t-128.5 173.5h147l461 -621q115 154 231.5 310.5t231.5 310.5h145l-534 -719l557 -758h-146l-485 662q-123 -164 -247 -332t-245 -330h-145z" />
<glyph unicode="Y" horiz-adv-x="1265" d="M-35 1477h139l512 -740q129 186 257 369.5t257 370.5h138l-594 -859v-618h-117v618q-70 100 -144.5 210t-151.5 220.5t-152.5 220t-143.5 208.5z" />
<glyph unicode="Z" horiz-adv-x="1097" d="M-14 0v104l929 1256h-876v117h1030v-105l-928 -1255h944v-117h-1099z" />
<glyph unicode="[" horiz-adv-x="313" d="M45 -340v1819h291v-113h-176v-1591h176v-115h-291z" />
<glyph unicode="\" horiz-adv-x="714" d="M-43 1479h121l653 -1512h-119z" />
<glyph unicode="]" horiz-adv-x="319" d="M-35 -225h178v1591h-178v113h291v-1819h-291v115z" />
<glyph unicode="^" horiz-adv-x="1044" d="M-18 436l479 946h84l479 -946h-125l-395 783q-98 -193 -200.5 -392.5t-197.5 -390.5h-124z" />
<glyph unicode="_" horiz-adv-x="1189" d="M59 -68h1026v-172h-1026v172z" />
<glyph unicode="`" horiz-adv-x="329" d="M-80 1479h162l303 -351h-127z" />
<glyph unicode="a" horiz-adv-x="1087" d="M35 532q0 229 119 381q137 172 360 172q113 0 204 -47t159 -135v15v145h114v-1063h-114v160q-2 -2 -3.5 -4t-3.5 -4q-133 -174 -358 -175q-223 0 -360 175q-117 150 -117 380zM147 532q0 -182 95 -307q96 -133 272 -133q170 0 270 133q93 127 93 307q0 178 -93 306 q-100 133 -270 133q-174 0 -270 -133q-96 -121 -97 -306z" />
<glyph unicode="b" horiz-adv-x="1015" d="M57 0v1448h115l4 -530q59 84 149.5 125.5t202.5 41.5q217 0 344 -180v2q111 -154 111 -377t-109 -374h3q-123 -178 -349 -179q-111 0 -203 48.5t-153 130.5v-156h-115zM172 530q0 -180 90 -305q100 -133 266 -133q168 0 258 133q82 123 82 305q0 178 -82 308h2 q-96 133 -260 133q-178 0 -272 -131q-84 -119 -84 -310z" />
<glyph unicode="c" horiz-adv-x="1005" d="M33 510q0 119 32.5 221.5t88.5 177.5q66 86 161 131t213 45q82 0 153 -27.5t124 -79.5t89 -126t46 -164h-115q-20 133 -100 208t-197 75q-188 0 -286 -135q-94 -129 -95 -326q0 -90 24 -163t71 -132q96 -123 264 -123q133 0 223 78q94 78 100 242h117q-10 -109 -45 -191 t-98 -137q-119 -106 -297 -107q-221 0 -352 162q-121 150 -121 371z" />
<glyph unicode="d" horiz-adv-x="1017" d="M106 907v-2q127 180 345 180q113 0 206 -44t152 -126v533h113v-1448h-113l-2 154q-61 -82 -153.5 -129.5t-202.5 -47.5q-221 0 -347 179q-108 151 -108 370q0 223 110 381zM111 530q0 -184 84 -305q88 -133 256 -133q166 0 266 133q92 123 92 305q0 193 -86 310 q-94 131 -272 131q-164 0 -254 -133q-86 -127 -86 -308z" />
<glyph unicode="e" horiz-adv-x="1034" d="M35 532q0 217 117 375q137 178 350 178q231 0 356 -174q55 -76 82 -182t27 -242h-817q10 -174 79 -272v2q88 -125 269 -125q141 0 234 86t116 240h115q-29 -221 -154 -332q-123 -109 -307 -109q-242 0 -361 168q-106 145 -106 387zM152 600h702q-8 150 -90 252 q-94 119 -258 119q-160 0 -258 -123q-41 -51 -64.5 -111.5t-31.5 -136.5z" />
<glyph unicode="f" horiz-adv-x="421" d="M-8 948v115h96v139q-1 14 -1 28q0 96 38 144q57 74 192 74q6 0 121 -12v-119q-47 10 -76.5 13t-50.5 3q-59 0 -83.5 -21.5t-24.5 -80.5v-168h211v-115h-211v-948h-115v948h-96z" />
<glyph unicode="g" horiz-adv-x="1030" d="M143 926q130 159 343 159h3q72 0 137.5 -23.5t121.5 -64.5q49 -37 77 -75v141h115v-993q0 -213 -114.5 -322.5t-329.5 -109.5q-170 0 -283 81q-127 94 -129 306h113q6 -156 90 -218q80 -57 207 -57q332 0 331 320l-2 141q-16 -18 -37.5 -37.5t-44.5 -36.5 q-121 -84 -264 -84q-217 0 -338 158q-108 138 -108 350q0 225 112 365zM145 565q0 -168 82 -280q86 -117 248 -117q158 0 260 115h-2q90 110 90 282q0 78 -22.5 152t-61.5 131q-96 123 -250 123q-162 0 -256 -119q-41 -55 -64.5 -128t-23.5 -159z" />
<glyph unicode="h" horiz-adv-x="907" d="M55 0v1434h115l4 -494q51 63 129 99t184 36q84 0 155 -25.5t122 -74.5t79.5 -122t28.5 -167v-686h-112v680q0 76 -22.5 129t-59.5 87t-86 50.5t-105 16.5q-78 0 -137 -31t-99 -81t-60.5 -117.5t-20.5 -141.5v-592h-115z" />
<glyph unicode="i" horiz-adv-x="229" d="M37 0v1063h115v-1063h-115zM37 1178v270h115v-270h-115z" />
<glyph unicode="j" horiz-adv-x="329" d="M-33 -225q150 0 168 16q29 16 29 117v1155h115v-1169q0 -145 -76 -197v2q-29 -20 -87.5 -28.5t-148.5 -10.5v115zM164 1178v270h115v-270h-115z" />
<glyph unicode="k" horiz-adv-x="948" d="M57 0v1448h115v-909q154 129 311.5 262t311.5 262h174l-502 -420l506 -643h-148l-444 567q-57 -47 -103.5 -86t-105.5 -88v-393h-115z" />
<glyph unicode="l" horiz-adv-x="354" d="M43 223v1225h115v-1219q2 -114 94 -114h2q18 0 48 2t73 6v-113q-53 -4 -87 -7t-44 -3q-199 0 -201 223z" />
<glyph unicode="m" horiz-adv-x="1529" d="M66 0v1053h114v-115q49 66 119 101.5t156 35.5h18q93 0 163 -39q77 -43 120 -127q47 76 128 121t179 45t165.5 -28.5t107.5 -81t57.5 -125t17.5 -160.5v-680h-113v680q0 63 -11 115.5t-37.5 89.5t-71.5 57.5t-115 20.5q-61 0 -111.5 -25t-85.5 -67t-53 -97t-18 -117v-657 h-113v666q0 61 -9 114.5t-34 94t-69 64.5t-113 24q-63 0 -114.5 -31t-87.5 -81t-55.5 -117.5t-19.5 -141.5v-592h-114z" />
<glyph unicode="n" horiz-adv-x="956" d="M55 0v1063h115v-121q53 68 136 105.5t181 37.5q180 0 282.5 -106.5t102.5 -286.5v-692h-112v686q0 133 -72 209t-201 76q-150 0 -235 -109q-39 -53 -60.5 -118.5t-21.5 -145.5v-598h-115z" />
<glyph unicode="o" horiz-adv-x="1062" d="M35 532q0 229 119 381q137 172 360 172t356 -174q121 -156 121 -379q0 -225 -121 -380q-133 -174 -358 -175q-223 0 -360 175q-117 150 -117 380zM147 532q0 -182 95 -307q96 -133 272 -133q170 0 270 133q93 127 93 307q0 178 -93 306q-100 133 -270 133 q-174 0 -270 -133q-96 -121 -97 -306z" />
<glyph unicode="p" horiz-adv-x="1017" d="M57 -340v1403h115l2 -154q61 82 152.5 129t201.5 47q219 0 346 -178v2q109 -151 109 -374q0 -219 -109 -377q-129 -180 -346 -181q-111 0 -203 45.5t-153 127.5v-490h-115zM172 535q0 -193 84 -312q94 -131 272 -131q164 0 258 135q82 130 82 308q0 180 -82 303 q-90 133 -258 133q-166 0 -266 -133q-90 -121 -90 -303z" />
<glyph unicode="q" horiz-adv-x="1019" d="M106 909v-2q125 178 347 178q111 0 204 -46t152 -130v154h115v-1403h-115l-2 485q-59 -82 -151.5 -125t-202.5 -43q-217 0 -347 181q-108 157 -108 373q0 227 108 378zM113 535q0 -90 21.5 -167t62.5 -141q92 -135 256 -135q178 0 272 131q84 115 84 312 q0 90 -21.5 166.5t-68.5 136.5q-100 133 -266 133q-168 0 -256 -133q-84 -121 -84 -303z" />
<glyph unicode="r" horiz-adv-x="540" d="M49 0v1053h115v-125q56 66 152 108q88 39 211 39h24v-114q-16 1 -32 1q-80 0 -141 -26q-73 -31 -121 -83t-70.5 -120.5t-22.5 -140.5v-592h-115z" />
<glyph unicode="s" horiz-adv-x="919" d="M31 414h112q0 -322 320 -322q117 0 192 47q86 49 86 146q0 115 -151 168h4q-41 10 -81 20t-81 21q-41 10 -88 22t-88 25q-188 72 -188 260q0 143 127 223h-2q100 61 243 61q391 0 391 -389h-112q0 274 -279 275q-104 0 -174 -39q-80 -47 -80 -131q0 -111 150 -164h-4 q41 -10 81 -21.5t80 -21.5q41 -12 87.5 -23.5t87.5 -21.5q190 -72 190 -260q0 -156 -131 -242q-102 -70 -260 -70q-432 0 -432 437z" />
<glyph unicode="t" horiz-adv-x="423" d="M-16 948v115h120v203l115 86v-289h221v-115h-221v-948h-115v948h-120z" />
<glyph unicode="u" horiz-adv-x="958" d="M49 371v692h115v-686q0 -133 71.5 -209t200.5 -76q145 0 236 109q39 53 60.5 118.5t21.5 145.5v598h112v-1063h-112v121q-55 -68 -137 -106t-181 -38q-180 0 -283.5 106.5t-103.5 287.5z" />
<glyph unicode="v" horiz-adv-x="940" d="M-16 1063h131l352 -879q82 223 164 440.5t162 438.5h122l-397 -1063h-100z" />
<glyph unicode="w" horiz-adv-x="1540" d="M27 1063h116l267 -860q68 213 138 432t136 428h113l278 -864q68 217 135.5 435t132.5 429h117l-334 -1063h-104l-281 862q-70 -215 -140.5 -433t-137.5 -429h-111z" />
<glyph unicode="x" horiz-adv-x="1009" d="M-4 0l420 549q-45 57 -94.5 123.5t-99.5 134t-99 133.5t-92 123h145l309 -420q78 104 160 211t158 209h141l-387 -514l422 -549h-143l-351 459q-86 -115 -174 -231.5t-174 -227.5h-141z" />
<glyph unicode="y" horiz-adv-x="935" d="M-6 1063h125l360 -866q82 219 164 434t162 432h121l-469 -1239q-39 -100 -123 -139q-55 -25 -211 -25v115q141 0 182 26q35 25 57 86q10 27 18.5 52.5t18.5 50.5q10 35 21 57q-49 121 -103.5 249t-109.5 259t-109.5 259t-103.5 249z" />
<glyph unicode="z" horiz-adv-x="841" d="M-8 0v98l647 850h-596v115h750v-98l-648 -850h678v-115h-831z" />
<glyph unicode="{" horiz-adv-x="417" d="M-18 537v90q82 14 110 88q10 33 15.5 85t5.5 122v40.5t-2 59.5t-2 60.5v41.5q0 156 28 236q43 119 158 119h133v-113h-129q-72 0 -72 -205v-41.5t2 -62.5t2 -65.5v-47.5q0 -133 -28.5 -228t-79.5 -145q111 -104 110 -376v-48t-2 -67t-2 -63.5v-43.5q0 -199 70 -198h129 v-115h-133q-53 0 -91 23.5t-59 64.5q-12 29 -20 77t-8 105v33t2 47v41q0 10 1 18.5t1 18.5q2 29 2 52.5v39.5q0 260 -141 357z" />
<glyph unicode="|" horiz-adv-x="237" d="M41 -33v1512h115v-1512h-115z" />
<glyph unicode="}" horiz-adv-x="417" d="M-25 -225h129q35 0 54 45q16 53 16 160v41.5t-2 60.5q-2 37 -2 66.5v48.5q0 135 28.5 228t77.5 144q-106 100 -106 375v49t2 66q2 39 2 65.5v42.5q0 199 -70 199h-129v113h134q109 0 149 -86q14 -33 22.5 -79t8.5 -106v-32.5t-2 -42.5q0 -8 -1 -21.5t-1 -26.5 q0 -10 -1 -19t-1 -17q-2 -29 -2 -52.5v-40.5q0 -260 141 -352v-90q-86 -16 -109 -90q-10 -31 -15 -83t-5 -124v-40.5t2 -59.5v-103q0 -162 -27 -235q-43 -119 -159 -119h-134v115z" />
<glyph unicode="~" horiz-adv-x="1032" d="M20 422q119 227 279 227q84 0 240 -71q137 -61 180 -62q55 0 149 146l113 -37q-137 -223 -264 -224q-68 0 -213 70q-125 63 -205 64q-82 0 -168 -150z" />
<glyph unicode="&#xa1;" horiz-adv-x="229" d="M37 -340v1108h115v-1108h-115zM37 852v264h115v-264h-115z" />
<glyph unicode="&#xa2;" horiz-adv-x="952" d="M12 535q0 211 109 364q111 160 295 182v172h114v-172q143 -8 242 -92l-2 2q123 -94 145 -303h-114q-16 129 -88 199.5t-183 81.5v-877q104 6 179 80q84 82 102 240h113q-23 -186 -127.5 -303t-266.5 -129v-211h-114v211q-96 10 -169 56t-130 128h2q-55 78 -81 170 t-26 201zM125 535q0 -180 82 -302q39 -59 92 -94t117 -45v873q-63 -10 -115.5 -43t-91.5 -93q-84 -125 -84 -296z" />
<glyph unicode="&#xa3;" horiz-adv-x="1132" d="M23 45q242 209 241 393q0 127 -45 224h-160v116h99q-4 6 -7.5 12.5t-7.5 14.5l2 -2q-10 20 -22 42.5t-23 45.5q-49 106 -49 192q0 190 146 301q63 47 144 71t177 24q217 0 346 -117q143 -125 133 -338q0 -16 -2 -51t-2 -51h-112l2 96q4 160 -97 254q-96 94 -268 94 q-154 0 -248 -70q-104 -72 -104 -213q0 -35 10 -74.5t33 -86.5v2q23 -41 40 -73t40 -73h315v-116h-262q37 -96 37 -224q0 -139 -80 -264q14 4 24.5 4h26.5q76 0 199 -51q117 -45 172 -45q70 0 137 43q29 16 67 50t89 83l73 -80q-186 -211 -366 -211q-76 0 -205 49 q-117 47 -166 47q-106 0 -239 -108z" />
<glyph unicode="&#xa4;" horiz-adv-x="1150" d="M45 690q0 92 29.5 172t83.5 150q-27 29 -57.5 59.5t-53.5 52.5l80 80l111 -112q133 115 317 114q182 0 317 -114q27 29 58 59.5t53 52.5l80 -80l-109 -110q111 -140 111 -324q0 -90 -29.5 -171t-83.5 -148q27 -29 57.5 -59.5l53.5 -53.5l-80 -80l-109 111 q-137 -113 -319 -113q-184 0 -317 115q-27 -29 -57.5 -59.5l-53.5 -53.5l-80 80l111 113q-53 68 -83 148.5t-30 170.5zM160 690q0 -166 114 -280q59 -59 128 -89t153 -30q158 0 276 119q119 116 119 280q0 166 -116 283q-59 59 -127 89t-152 30q-160 0 -281 -121 q-115 -115 -114 -281z" />
<glyph unicode="&#xa5;" horiz-adv-x="1097" d="M-27 1448h129l428 -703q104 172 213 351.5t211 351.5h131l-450 -748h229v-114h-280v-121h280v-113h-280v-352h-113v352h-281v113h281v121h-281v114h234q-111 184 -225.5 376t-225.5 372z" />
<glyph unicode="&#xa6;" horiz-adv-x="194" d="M41 -33v631h115v-631h-115zM41 850v629h115v-629h-115z" />
<glyph unicode="&#xa7;" horiz-adv-x="997" d="M25 711q0 96 73 188q23 27 49.5 50.5t55.5 39.5q-35 41 -53.5 91t-18.5 106q0 141 107 223q94 70 231 70q168 0 270 -115q92 -117 92 -315h-114q-4 166 -62 239q-35 35 -83 56.5t-107 21.5q-90 0 -156 -49q-66 -45 -65 -135q0 -98 164 -207h-2q86 -51 171 -103.5 t171 -105.5q192 -148 192 -336q0 -102 -76 -188q-23 -27 -53.5 -48.5t-60.5 -37.5q43 -47 62 -96.5t19 -102.5q0 -156 -97 -237.5t-253 -81.5q-188 0 -280 116h2q-92 111 -92 332h114q0 -336 256 -336q43 0 86 13.5t76 35.5q72 49 72 133q0 131 -160 242v-2 q-84 53 -165 102.5t-165 102.5q-201 147 -200 334zM137 694q0 -113 199 -256l-2 2q41 -27 83 -52.5t83 -53.5q41 -27 74.5 -49.5t74.5 -48.5q66 16 121 71t55 125q0 96 -92 193q-37 39 -92 79.5t-129 81.5q-57 35 -106.5 63t-106.5 62q-70 -27 -116 -86t-46 -131z" />
<glyph unicode="&#xa8;" horiz-adv-x="528" d="M47 1133v233h115v-233h-115zM344 1133v233h115v-233h-115z" />
<glyph unicode="&#xa9;" horiz-adv-x="1642" d="M43 725q0 307 219 532q217 221 531 222q309 0 528 -222q219 -225 219 -532q0 -309 -219 -535q-217 -223 -528 -223q-313 0 -531 223q-219 221 -219 535zM158 725q0 -268 184 -455q184 -188 451 -188q260 0 448 188q186 193 186 455q0 260 -186 453q-188 188 -448 188 q-266 0 -451 -188q-184 -186 -184 -453zM356 713q0 207 121 338q119 137 330 137q76 0 143.5 -24.5t119.5 -73t87 -116t45 -153.5h-115q-18 119 -96 186.5t-184 67.5q-156 0 -246 -100t-90 -260q0 -78 23.5 -145.5t66.5 -118.5q47 -51 110.5 -79t141.5 -28q102 0 177 74 t102 188h114q-45 -190 -143 -278q-104 -98 -250 -99q-205 0 -334 142q-123 141 -123 342z" />
<glyph unicode="&#xaa;" horiz-adv-x="722" d="M29 905q0 162 149 199h-2q6 2 63.5 8t168.5 16q88 6 88 46q0 117 -146 116q-152 0 -172 -162h-115q31 276 287 277q260 0 260 -209v-365q0 2 64 5v-115q-139 -6 -166 47q0 2 -1 4t-1 6q-12 -10 -25.5 -17t-27.5 -16q-94 -41 -174 -40q-47 0 -89.5 11t-74.5 32 q-86 57 -86 157zM143 905q0 -86 136 -86q94 0 155.5 49.5t61.5 137.5v26q-23 -8 -44.5 -10t-56.5 -6q-72 -6 -119 -11.5t-63 -9.5q-70 -27 -70 -90z" />
<glyph unicode="&#xab;" horiz-adv-x="507" d="M-6 526v56l270 368v-194l-149 -203q35 -49 74.5 -101.5t74.5 -99.5v-200zM170 526v56l272 368v-194l-151 -203q35 -49 76 -101.5t75 -99.5v-200z" />
<glyph unicode="&#xac;" horiz-adv-x="1116" d="M-20 651v117h1036v-590h-115v473h-921z" />
<glyph unicode="&#xad;" horiz-adv-x="526" d="M47 496v114h410v-114h-410z" />
<glyph unicode="&#xae;" horiz-adv-x="1642" d="M43 725q0 307 219 532q217 221 531 222q309 0 528 -222q219 -225 219 -532q0 -309 -219 -535q-217 -223 -528 -223q-313 0 -531 223q-219 221 -219 535zM158 725q0 -268 184 -455q184 -188 451 -188q260 0 448 188q186 193 186 455q0 260 -186 453q-188 188 -448 188 q-266 0 -451 -188q-184 -186 -184 -453zM514 258v903h307q307 0 307 -262q0 -96 -49 -158.5t-137 -85.5l256 -397h-137l-244 383h-188v-383h-115zM629 758h159q226 0 226 141q0 147 -197 148h-188v-289z" />
<glyph unicode="&#xaf;" horiz-adv-x="641" d="M49 1206v113h518v-113h-518z" />
<glyph unicode="&#xb0;" horiz-adv-x="700" d="M29 1092q0 129 86 221q92 92 223 92q127 0 219 -92q90 -96 90 -221q0 -127 -90 -224h2q-90 -92 -221 -92q-135 0 -223 92q-86 92 -86 224zM141 1092q0 -41 14.5 -76t43.5 -68h-2q57 -57 141 -57q80 0 137 57q29 31 44.5 66t15.5 78t-14.5 77.5t-43.5 63.5q-57 57 -139 57 q-41 0 -74 -15t-63 -44q-59 -63 -60 -139z" />
<glyph unicode="&#xb1;" horiz-adv-x="1036" d="M-18 0v115h1034v-115h-1034zM-18 553v115h460v381h115v-381h459v-115h-459v-381h-115v381h-460z" />
<glyph unicode="&#xb2;" horiz-adv-x="696" d="M33 532q0 170 145 281q31 20 61.5 39.5t61.5 42.5q29 20 60.5 41.5t62.5 44.5l-2 -2q117 92 117 188q0 31 -15.5 54.5t-38.5 40.5q-51 29 -129 28q-195 0 -194 -231h-115q8 346 309 346q119 0 197 -49q98 -63 98 -189q0 -139 -149 -268q-4 -2 -13 -8q-6 -4 -16 -11.5 t-20 -15.5q-59 -39 -179 -121q-80 -53 -104 -96h506v-115h-643z" />
<glyph unicode="&#xb3;" horiz-adv-x="751" d="M23 872h114q0 -240 230 -239q41 0 78.5 12t68.5 29q29 23 45 49.5t16 62.5q0 92 -73 123q-59 25 -217 25v117q74 0 126 5t78 15q29 14 50.5 42t21.5 63q0 115 -190 114q-209 0 -209 -215h-115q0 178 98 258q88 72 228 72q303 0 303 -229q0 -61 -25.5 -108.5t-72.5 -76.5 q14 -8 21 -13t19 -15q72 -66 72 -177q0 -125 -106 -202q-94 -66 -215 -66q-152 0 -246 78q-100 82 -100 276z" />
<glyph unicode="&#xb4;" horiz-adv-x="344" d="M-72 1128l320 351h166l-355 -351h-131z" />
<glyph unicode="&#xb5;" horiz-adv-x="911" d="M55 -340v1403h113v-686q0 -133 70.5 -209t199.5 -76q332 0 332 553q0 41 -2 91t-6 116q-2 33 -3 66.5t-1 62.5v50.5v31.5h112v-1063h-112v121q-55 -68 -137 -106t-183 -38q-86 0 -153.5 25t-114.5 72v-414h-115z" />
<glyph unicode="&#xb6;" horiz-adv-x="976" d="M0 1032q0 207 135 316v-2q121 102 326 102h422v-1716h-113v1601h-235v-1601h-113v897q-80 4 -147.5 31.5t-127.5 72.5q-70 59 -108.5 135t-38.5 164z" />
<glyph unicode="&#xb7;" horiz-adv-x="260" d="M27 690q0 100 100 101q98 -1 98 -101q0 -98 -98 -98q-100 0 -100 98z" />
<glyph unicode="&#xb8;" horiz-adv-x="440" d="M-20 -305l53 108q106 -41 157 -41q111 0 111 66q0 16 -21.5 26.5t-46.5 10.5q-51 0 -102 -31l-86 53l148 189h129l-70 -96q162 -11 162 -152q0 -180 -224 -180q-31 0 -83 12t-127 35z" />
<glyph unicode="&#xb9;" horiz-adv-x="370" d="M-33 1122v113q135 41 244 158h96v-861h-114l-3 689q-78 -57 -223 -99z" />
<glyph unicode="&#xba;" horiz-adv-x="733" d="M29 1057q0 74 22.5 134t65.5 112q90 102 237 102t240 -105q82 -100 82 -243q0 -145 -84 -246q-94 -106 -240 -106q-150 0 -235 106q-88 104 -88 246zM143 1057q0 -100 60 -168q61 -70 151 -70q43 0 82 18.5t70 53.5q27 35 42 78t15 88q0 96 -59 166q-59 68 -150 67 q-90 0 -151 -67q-59 -66 -60 -166z" />
<glyph unicode="&#xbb;" horiz-adv-x="507" d="M49 152v200l150 201q-35 51 -75 103.5t-75 99.5v194l270 -368v-56zM225 152v200l150 201q-35 51 -75 103.5t-75 99.5v194l273 -368v-56z" />
<glyph unicode="&#xbc;" horiz-adv-x="1368" d="M25 1122v113q135 39 243 158h97v-861h-115l-2 689q-78 -57 -223 -99zM72 -66l954 1514h135l-954 -1514h-135zM618 197v98l429 565h106v-551h143v-112h-143v-197h-115v197h-420zM774 309h264q0 47 -1 86t-1 79t-1 83t-1 96q-35 -43 -64.5 -84t-60 -82t-63.5 -85t-72 -93z " />
<glyph unicode="&#xbd;" horiz-adv-x="1519" d="M33 1122v113q139 41 243 158h97v-861h-113l-4 689q-80 -59 -223 -99zM61 -66l955 1514h135l-954 -1514h-136zM807 0q0 172 145 283l246 168l-2 -2q117 92 117 186q0 59 -53 96q-53 27 -130 27q-199 0 -194 -232h-113q0 346 307 346q119 0 197 -49q100 -63 100 -188 q0 -137 -145 -262q-14 -6 -235 -162q-41 -29 -66 -51.5t-39 -44.5h508v-115h-643z" />
<glyph unicode="&#xbe;" horiz-adv-x="1568" d="M29 872h112q0 -240 232 -239q41 0 78.5 12t66.5 29q31 23 47.5 49.5t16.5 62.5q0 76 -60 115q-59 37 -143 37q-16 0 -39 -2t-49 -6v121q152 0 205 20q29 14 49 42t20 63q0 115 -188 114q-211 0 -211 -215h-113q0 178 97 258q90 72 229 72q301 0 301 -229 q0 -61 -25.5 -108.5t-70.5 -76.5q14 -8 20 -13t17 -15q75 -71 75 -177q0 -125 -106 -202q-94 -66 -215 -66q-154 0 -248 76q-98 84 -98 278zM268 -66l955 1514h135l-955 -1514h-135zM803 197v98l428 565h104v-551h146v-112h-146v-197h-112v197h-420zM958 309h265q0 47 -1 86 t-1 79t-1 83t-1 96q-35 -43 -65 -84t-60.5 -82t-63.5 -85t-72 -93z" />
<glyph unicode="&#xbf;" horiz-adv-x="886" d="M-2 -6q0 160 106 282l62 62q31 31 60.5 61.5t60.5 63.5l-4 -4q88 113 88 309h114q0 -233 -112 -379q-23 -23 -42.5 -43t-41.5 -43q-23 -23 -44.5 -47.5t-43.5 -46.5v2q-88 -96 -88 -217q0 -119 88 -182q41 -29 93 -45.5t118 -16.5q84 0 147.5 27.5t106.5 79.5 q82 104 82 313h114q0 -250 -114 -389q-61 -70 -144.5 -106.5t-191.5 -36.5q-168 0 -283 86q-63 51 -97 118.5t-34 151.5zM373 852v264h114v-264h-114z" />
<glyph unicode="&#xc0;" horiz-adv-x="1269" d="M-18 0l593 1477h105l580 -1477h-130l-182 461h-651q-45 -111 -94 -231.5t-90 -229.5h-131zM332 1860h164l309 -361h-129zM340 578h563q-37 98 -70.5 183t-66.5 169t-66.5 171t-72.5 189q-74 -182 -142.5 -352t-144.5 -360z" />
<glyph unicode="&#xc1;" horiz-adv-x="1271" d="M-23 0l594 1477h105l579 -1477h-129l-182 461h-651q-45 -111 -94 -231.5t-90 -229.5h-132zM336 578h563q-37 98 -70.5 183t-66.5 169t-66.5 171t-72.5 189q-74 -182 -142.5 -352t-144.5 -360zM422 1499l326 361h170l-361 -361h-135z" />
<glyph unicode="&#xc2;" horiz-adv-x="1280" d="M-16 0l594 1477h104l580 -1477h-129l-183 461h-651q-45 -111 -94 -231.5t-90 -229.5h-131zM305 1509l285 351h67l283 -351h-137l-182 217q-43 -53 -87.5 -110t-84.5 -107h-144zM342 578h563q-37 98 -70.5 183t-66.5 169t-66.5 171t-72.5 189q-74 -182 -142.5 -352 t-144.5 -360z" />
<glyph unicode="&#xc3;" horiz-adv-x="1267" d="M-23 0l594 1477h105l579 -1477h-129l-182 461h-651q-45 -111 -94 -231.5t-90 -229.5h-132zM324 1530q0 109 47 164q51 68 123 67q59 0 147 -63q35 -23 60.5 -37t39.5 -14q25 0 40.5 33.5t15.5 74.5h116q0 -98 -46 -160.5t-126 -62.5q-70 0 -151 63q-68 49 -96 50 q-23 0 -38.5 -37t-15.5 -78h-116zM336 578h563q-37 98 -70.5 183t-66.5 169t-66.5 171t-72.5 189q-74 -182 -142.5 -352t-144.5 -360z" />
<glyph unicode="&#xc4;" horiz-adv-x="1267" d="M-23 0l594 1477h105l579 -1477h-129l-182 461h-651q-45 -111 -94 -231.5t-90 -229.5h-132zM336 578h563q-37 98 -70.5 183t-66.5 169t-66.5 171t-72.5 189q-74 -182 -142.5 -352t-144.5 -360zM410 1505v238h114v-238h-114zM711 1505v238h116v-238h-116z" />
<glyph unicode="&#xc5;" horiz-adv-x="1288" d="M-12 0l594 1477h104l578 -1477h-127l-183 461h-651q-45 -111 -94 -231.5t-90 -229.5h-131zM346 578h563q-37 98 -70.5 183t-66.5 169t-66.5 171t-72.5 189q-74 -182 -142.5 -352t-144.5 -360zM418 1655q0 43 17.5 81t46 66.5t66.5 46t81 17.5t81 -17.5t66.5 -46t45 -66.5 t16.5 -81t-16.5 -81t-45 -67.5t-66.5 -46t-81 -16.5t-81 16.5t-67.5 46t-46 67.5t-16.5 81zM535 1655q0 -37 27.5 -65.5t66.5 -28.5q37 0 64.5 28.5t27.5 65.5q0 39 -27.5 67.5t-64.5 28.5q-39 0 -66.5 -28.5t-27.5 -67.5z" />
<glyph unicode="&#xc6;" horiz-adv-x="1777" d="M-12 0l774 1477h973v-117h-760v-533h698v-116h-698v-594h760v-117h-877v537h-459q-66 -129 -140.5 -268.5t-139.5 -268.5h-131zM461 653h397v711h-29q-49 -92 -94 -180t-90 -174t-90 -174t-94 -183z" />
<glyph unicode="&#xc7;" horiz-adv-x="1380" d="M18 727q0 330 175 547q193 236 516 235q219 0 391 -129q190 -147 203 -401h-117q-12 199 -160 311q-139 102 -317 103q-260 0 -422 -199q-152 -188 -152 -467q0 -266 146 -448q152 -195 403 -195q225 0 367 143q133 133 168 400h118q-43 -317 -202 -480 q-74 -74 -162 -118.5t-199 -55.5q113 -29 113 -149q0 -182 -228 -182q-57 0 -217 47l56 110q111 -41 161 -41q113 0 113 66q0 16 -22.5 27.5t-47.5 11.5q-53 0 -104 -31l-84 53l68 88q-123 18 -223.5 81t-176.5 159q-164 211 -164 514z" />
<glyph unicode="&#xc8;" horiz-adv-x="1042" d="M37 0v1477h997v-117h-882v-533h829v-116h-829v-594h888v-117h-1003zM201 1860h166l307 -361h-127z" />
<glyph unicode="&#xc9;" horiz-adv-x="1036" d="M31 0v1477h997v-117h-883v-533h830v-116h-830v-594h889v-117h-1003zM291 1499l325 361h168l-360 -361h-133z" />
<glyph unicode="&#xca;" horiz-adv-x="1042" d="M37 0v1477h997v-117h-882v-533h829v-116h-829v-594h888v-117h-1003zM174 1509l283 351h67l285 -351h-139l-183 217q-41 -53 -86 -110t-86 -107h-141z" />
<glyph unicode="&#xcb;" horiz-adv-x="1044" d="M37 0v1477h997v-117h-880v-533h829v-116h-829v-594h888v-117h-1005zM285 1505v238h116v-238h-116zM588 1505v238h114v-238h-114z" />
<glyph unicode="&#xcc;" horiz-adv-x="333" d="M-88 1860h166l309 -361h-129zM145 0v1477h117v-1477h-117z" />
<glyph unicode="&#xcd;" horiz-adv-x="348" d="M-68 1499l326 361h170l-360 -361h-136zM72 0v1477h114v-1477h-114z" />
<glyph unicode="&#xce;" horiz-adv-x="516" d="M-68 1509l285 351h68l282 -351h-137l-182 217q-43 -53 -88 -110t-86 -107h-142zM193 0v1477h116v-1477h-116z" />
<glyph unicode="&#xcf;" horiz-adv-x="376" d="M-27 1505v238h117v-238h-117zM125 0v1477h117v-1477h-117zM276 1505v238h117v-238h-117z" />
<glyph unicode="&#xd0;" horiz-adv-x="1380" d="M31 711v116h125v650h524q317 0 483 -220q146 -199 146 -518q0 -166 -44 -297t-130 -233q-188 -209 -514 -209h-465v711h-125zM272 117h357q274 0 422 176q141 165 141 446q0 287 -121 449q-127 172 -401 172h-398v-533h576v-116h-576v-594z" />
<glyph unicode="&#xd1;" horiz-adv-x="1232" d="M37 0v1477h117l893 -1268v1268h116v-1477h-116l-893 1268v-1268h-117zM305 1530q0 104 47 164q51 68 123 67q59 0 148 -63q35 -23 60.5 -37t39.5 -14q25 0 40 33.5t15 74.5h117q0 -98 -46 -160.5t-126 -62.5q-70 0 -152 63q-68 49 -96 50q-23 0 -38 -37t-15 -78h-117z " />
<glyph unicode="&#xd2;" horiz-adv-x="1429" d="M20 739q0 322 173 535q186 236 505 235q315 0 508 -235q168 -211 168 -535q0 -326 -168 -536q-193 -236 -508 -236q-319 0 -508 236q-170 213 -170 536zM137 739q0 -276 144 -463q150 -193 417 -192q264 0 418 192q144 184 144 463q0 281 -144 461q-156 193 -418 193 q-268 0 -417 -193q-143 -184 -144 -461zM408 1860h163l310 -361h-129z" />
<glyph unicode="&#xd3;" horiz-adv-x="1429" d="M16 739q0 322 170 535q188 236 508 235q315 0 508 -235q170 -213 170 -535q0 -324 -170 -536q-193 -236 -508 -236q-319 0 -508 236q-170 213 -170 536zM133 739q0 -279 141 -463q154 -193 420 -192q264 0 420 192q141 184 141 463t-141 461q-158 193 -420 193 q-264 0 -420 -193q-141 -182 -141 -461zM498 1499l325 361h170l-360 -361h-135z" />
<glyph unicode="&#xd4;" horiz-adv-x="1433" d="M20 739q0 322 170 535q188 236 508 235q315 0 508 -235q168 -211 168 -535q0 -326 -168 -536q-193 -236 -508 -236q-319 0 -508 236q-170 213 -170 536zM137 739q0 -279 142 -463q154 -193 419 -192q264 0 418 192q144 184 144 463q0 281 -144 461q-156 193 -418 193 q-264 0 -419 -193q-141 -182 -142 -461zM379 1509l285 351h67l283 -351h-137l-183 217q-43 -53 -87 -110t-85 -107h-143z" />
<glyph unicode="&#xd5;" horiz-adv-x="1441" d="M25 739q0 322 170 535q188 236 507 235q315 0 508 -235q168 -211 168 -535q0 -326 -168 -536q-193 -236 -508 -236q-319 0 -507 236q-170 213 -170 536zM141 739q0 -279 142 -463q154 -193 419 -192q264 0 418 192q144 184 144 463q0 281 -144 461q-156 193 -418 193 q-264 0 -419 -193q-141 -182 -142 -461zM408 1530q0 106 45 164q55 68 125 67q61 0 149 -63q35 -23 59.5 -37t36.5 -14q27 0 42.5 33.5t15.5 74.5h116q0 -98 -46 -160.5t-128 -62.5q-61 0 -149 63q-68 49 -96 50q-23 0 -38.5 -37t-15.5 -78h-116z" />
<glyph unicode="&#xd6;" horiz-adv-x="1441" d="M25 739q0 322 170 535q188 236 507 235q315 0 508 -235q168 -211 168 -535q0 -326 -168 -536q-193 -236 -508 -236q-319 0 -507 236q-170 213 -170 536zM141 739q0 -276 144 -463q150 -193 417 -192q264 0 418 192q144 184 144 463q0 281 -144 461q-156 193 -418 193 q-268 0 -417 -193q-143 -184 -144 -461zM492 1505v238h116v-238h-116zM795 1505v238h116v-238h-116z" />
<glyph unicode="&#xd7;" horiz-adv-x="974" d="M29 889l80 80l360 -369q88 92 181 185.5t181 183.5l80 -80l-362 -365l360 -362l-73 -88l-369 368q-86 -86 -182.5 -184t-180.5 -184l-73 88l358 360q-86 88 -180 184.5t-180 182.5z" />
<glyph unicode="&#xd8;" horiz-adv-x="1474" d="M39 66l149 167q-147 205 -147 506q0 324 168 535q193 236 510 235q274 0 450 -174q29 31 61 65t52 58l90 -72l-125 -139q148 -201 148 -508q0 -158 -44 -294t-126 -242q-92 -111 -222.5 -173.5t-283.5 -62.5q-283 0 -457 178q-33 -37 -69.5 -77.5t-65.5 -71.5zM158 739 q0 -244 110 -415l826 921q-74 78 -165 113t-210 35q-264 0 -420 -193q-141 -178 -141 -461zM340 236q139 -152 379 -152q266 0 416 192q143 182 143 463q0 115 -30.5 225.5t-80.5 190.5q-106 -119 -208.5 -232.5l-205 -227t-205 -227.5t-208.5 -232z" />
<glyph unicode="&#xd9;" horiz-adv-x="1175" d="M27 561v916h116v-916q0 -477 430 -477q432 0 433 477v916h116v-916q0 -276 -133 -430q-141 -164 -416 -164q-274 0 -413 164q-133 154 -133 430zM283 1860h166l307 -361h-127z" />
<glyph unicode="&#xda;" horiz-adv-x="1175" d="M23 561v916h116v-916q0 -477 430 -477q432 0 432 477v916h117v-916q0 -276 -133 -430q-141 -164 -416 -164q-274 0 -413 164q-133 154 -133 430zM375 1499l325 361h168l-360 -361h-133z" />
<glyph unicode="&#xdb;" horiz-adv-x="1183" d="M29 561v916h116v-916q0 -477 430 -477q432 0 433 477v916h116v-916q0 -276 -133 -430q-141 -164 -416 -164q-274 0 -413 164q-133 154 -133 430zM258 1509l283 351h69l283 -351h-137l-183 217q-43 -53 -88 -110t-86 -107h-141z" />
<glyph unicode="&#xdc;" horiz-adv-x="1191" d="M33 561v916h117v-916q0 -477 430 -477q432 0 432 477v916h116v-916q0 -276 -133 -430q-141 -164 -415 -164t-414 164q-133 154 -133 430zM371 1505v238h116v-238h-116zM674 1505v238h117v-238h-117z" />
<glyph unicode="&#xdd;" horiz-adv-x="1241" d="M-47 1477h139l512 -740q129 186 257 369.5t257 370.5h137l-593 -859v-618h-115v618q-70 100 -145.5 210t-152.5 220.5t-153 220t-143 208.5zM408 1542l327 359h168l-360 -359h-135z" />
<glyph unicode="&#xde;" horiz-adv-x="1120" d="M55 0v1477h115v-242q27 0 61.5 1t77.5 3q63 4 116.5 6t88.5 2q268 0 404 -73q196 -109 196 -361q0 -256 -209 -356q-154 -72 -424 -72h-63.5t-77.5 2h-49q-59 4 -78.5 5t-42.5 1v-393h-115zM170 510h483q154 0 248 80q96 80 96 223q0 305 -344 305h-483v-608z" />
<glyph unicode="&#xdf;" horiz-adv-x="944" d="M51 0v1106q0 174 100.5 269t272.5 95q156 0 268 -94q121 -102 121 -260q0 -131 -70 -225q-35 -47 -79 -78q219 -76 219 -373q0 -244 -146 -350q-59 -43 -162.5 -66.5t-242.5 -23.5v115l86 -2q350 -14 350 327q0 180 -111 246q-88 57 -325 57v115q367 0 366 258 q0 111 -82 176v-2q-82 66 -192 66q-123 0 -190.5 -65.5t-67.5 -188.5v-1102h-115z" />
<glyph unicode="&#xe0;" d="M35 532q0 229 119 381q137 172 360 172q113 0 204 -47t159 -135v15v145h114v-1063h-114v160q-2 -2 -3.5 -4t-3.5 -4q-133 -174 -358 -175q-223 0 -360 175q-117 150 -117 380zM147 532q0 -182 95 -307q96 -133 272 -133q170 0 270 133q93 127 93 307q0 178 -93 306 q-100 133 -270 133q-174 0 -270 -133q-96 -121 -97 -306zM303 1479h162l303 -351h-127z" />
<glyph unicode="&#xe1;" d="M35 532q0 229 119 381q137 172 360 172q113 0 204 -47t159 -135v15v145h114v-1063h-114v160q-2 -2 -3.5 -4t-3.5 -4q-133 -174 -358 -175q-223 0 -360 175q-117 150 -117 380zM147 532q0 -182 95 -307q96 -133 272 -133q170 0 270 133q93 127 93 307q0 178 -93 306 q-100 133 -270 133q-174 0 -270 -133q-96 -121 -97 -306zM297 1128l320 351h166l-355 -351h-131z" />
<glyph unicode="&#xe2;" d="M35 532q0 229 119 381q137 172 360 172q113 0 204 -47t159 -135v15v145h114v-1063h-114v160q-2 -2 -3.5 -4t-3.5 -4q-133 -174 -358 -175q-223 0 -360 175q-117 150 -117 380zM147 532q0 -182 95 -307q96 -133 272 -133q170 0 270 133q93 127 93 307q0 178 -93 306 q-100 133 -270 133q-174 0 -270 -133q-96 -121 -97 -306zM223 1137l277 342h67l277 -342h-136l-178 213q-41 -51 -84 -107.5t-84 -105.5h-139z" />
<glyph unicode="&#xe3;" d="M35 532q0 229 119 381q137 172 360 172q113 0 204 -47t159 -135v15v145h114v-1063h-114v160q-2 -2 -3.5 -4t-3.5 -4q-133 -174 -358 -175q-223 0 -360 175q-117 150 -117 380zM147 532q0 -182 95 -307q96 -133 272 -133q170 0 270 133q93 127 93 307q0 178 -93 306 q-100 133 -270 133q-174 0 -270 -133q-96 -121 -97 -306zM244 1155q0 102 47 162q55 68 121 67q57 0 145 -63q72 -49 96 -49q23 0 39.5 32.5t16.5 73.5h112q0 -96 -43 -158.5t-125 -62.5q-57 0 -149 64q-66 49 -92 49q-23 0 -38 -37t-17 -78h-113z" />
<glyph unicode="&#xe4;" d="M35 532q0 229 119 381q137 172 360 172q113 0 204 -47t159 -135v15v145h114v-1063h-114v160q-2 -2 -3.5 -4t-3.5 -4q-133 -174 -358 -175q-223 0 -360 175q-117 150 -117 380zM147 532q0 -182 95 -307q96 -133 272 -133q170 0 270 133q93 127 93 307q0 178 -93 306 q-100 133 -270 133q-174 0 -270 -133q-96 -121 -97 -306zM330 1133v233h115v-233h-115zM627 1133v233h115v-233h-115z" />
<glyph unicode="&#xe5;" d="M35 532q0 229 119 381q137 172 360 172q113 0 204 -47t159 -135v15v145h114v-1063h-114v160q-2 -2 -3.5 -4t-3.5 -4q-133 -174 -358 -175q-223 0 -360 175q-117 150 -117 380zM147 532q0 -182 95 -307q96 -133 272 -133q170 0 270 133q93 127 93 307q0 178 -93 306 q-100 133 -270 133q-174 0 -270 -133q-96 -121 -97 -306zM332 1319q0 41 16 79t44 66.5t65.5 45t78.5 16.5t79 -16.5t65.5 -45t44 -66.5t16.5 -79t-16.5 -79t-44 -65.5t-64.5 -44t-80 -16.5q-41 0 -78.5 16.5t-65.5 44t-44 65.5t-16 79zM444 1319q0 -37 29 -63.5t63 -26.5 q37 0 63.5 26.5t26.5 63.5t-26.5 64.5t-63.5 27.5q-35 0 -63.5 -27.5t-28.5 -64.5z" />
<glyph unicode="&#xe6;" horiz-adv-x="1988" d="M61 532q0 225 121 381q137 172 359 172q115 0 202.5 -45t157.5 -133q14 -18 11 -8t-7 19v145h113v-189q6 10 12 16.5t12 16.5q66 86 155 132t194 46q231 0 358 -174q109 -152 109 -424h-818q6 -174 80 -272v2q86 -125 269 -125q139 0 232 86t116 240h114 q-25 -221 -151 -332q-123 -109 -309 -109q-119 0 -209 43t-152 125q-10 8 -12 19v-164h-113v160q-2 -2 -3 -4t-3 -4q-68 -86 -156 -130.5t-204 -44.5q-221 0 -359 175q-119 152 -119 380zM176 532q0 -182 94 -307q96 -133 271 -133q174 0 270 133q94 125 94 307 q0 180 -94 306q-96 133 -270 133q-84 0 -151.5 -33t-117.5 -100q-96 -121 -96 -306zM900 921q-1 -1 5 -14v11q-4 4 -5 3zM1042 600h701q-8 150 -90 252q-92 119 -258 119q-160 0 -256 -123q-41 -51 -65.5 -111.5t-31.5 -136.5z" />
<glyph unicode="&#xe7;" horiz-adv-x="974" d="M16 510q0 119 32 221.5t87 177.5q68 86 162 131t213 45q82 0 152.5 -27.5t125 -79.5t89 -126t45.5 -164h-113q-23 133 -102.5 208t-196.5 75q-188 0 -287 -135q-94 -129 -94 -326q0 -90 23.5 -163t70.5 -132q96 -123 264 -123q137 0 224 78q92 78 102 242h115 q-18 -190 -125 -306t-277 -126q154 -12 154 -152q0 -180 -225 -180q-29 0 -82.5 12t-128.5 35l53 108q106 -41 158 -41q111 0 110 66q0 16 -21.5 26.5t-45.5 10.5q-51 0 -103 -31l-84 53l76 101q-86 14 -146.5 54t-113.5 108q-111 147 -111 360z" />
<glyph unicode="&#xe8;" horiz-adv-x="995" d="M20 532q0 106 31 202.5t84 172.5q66 86 154 132t196 46q231 0 359 -174q109 -152 108 -424h-819q10 -174 80 -272v2q88 -125 268 -125q141 0 234.5 86t115.5 240h113q-25 -221 -151 -332q-123 -109 -308 -109q-238 0 -360 168q-104 143 -105 387zM135 600h703 q-8 150 -90 252q-92 119 -259 119q-156 0 -256 -125q-84 -102 -98 -246zM201 1438h161l302 -353h-125z" />
<glyph unicode="&#xe9;" horiz-adv-x="995" d="M12 532q0 106 32 202.5t85 172.5q66 86 153 132t195 46q231 0 359 -174q109 -152 108 -424h-817q6 -174 80 -272v2q86 -125 266 -125q141 0 234.5 86t115.5 240h113q-25 -221 -152 -332q-123 -109 -307 -109q-238 0 -360 168q-104 147 -105 387zM129 600h700 q-8 150 -90 252q-92 119 -258 119q-156 0 -256 -125q-84 -102 -96 -246zM287 1085l319 353h164l-352 -353h-131z" />
<glyph unicode="&#xea;" horiz-adv-x="1005" d="M23 532q0 106 30.5 202.5t83.5 172.5q66 86 154 132t196 46q231 0 359 -174q109 -152 108 -424h-819q10 -174 80 -272v2q88 -125 268 -125q141 0 234.5 86t116.5 240h112q-25 -221 -151 -332q-123 -109 -308 -109q-238 0 -360 168q-104 143 -104 387zM137 600h703 q-8 150 -90 252q-92 119 -258 119q-156 0 -256 -125q-84 -102 -99 -246zM176 1096l277 342h67l277 -342h-133l-181 213q-41 -53 -84 -109.5t-84 -103.5h-139z" />
<glyph unicode="&#xeb;" horiz-adv-x="1009" d="M25 532q0 106 30.5 202.5t83.5 172.5q66 86 154 132t196 46q231 0 359 -174q109 -152 108 -424h-819q10 -174 80 -272v2q88 -125 268 -125q141 0 234.5 86t116.5 240h112q-25 -221 -151 -332q-123 -109 -308 -109q-238 0 -360 168q-104 143 -104 387zM139 600h703 q-8 150 -90 252q-92 119 -258 119q-156 0 -256 -125q-84 -102 -99 -246zM285 1092v231h114v-231h-114zM582 1092v231h112v-231h-112z" />
<glyph unicode="&#xec;" horiz-adv-x="335" d="M-82 1438h162l303 -353h-127zM145 0v1063h115v-1063h-115z" />
<glyph unicode="&#xed;" horiz-adv-x="348" d="M-66 1085l320 353h166l-354 -353h-132zM70 0v1063h114v-1063h-114z" />
<glyph unicode="&#xee;" horiz-adv-x="518" d="M-63 1096l278 342h66l278 -342h-135l-178 213q-41 -53 -85 -109.5t-85 -103.5h-139zM193 0v1063h112v-1063h-112z" />
<glyph unicode="&#xef;" horiz-adv-x="393" d="M-16 1092v231h114v-231h-114zM133 0v1063h113v-1063h-113zM281 1092v231h114v-231h-114z" />
<glyph unicode="&#xf0;" horiz-adv-x="1038" d="M18 514q0 223 123 373h-2q133 164 359 164q100 0 178 -31q-37 49 -81 96t-91 92q-55 -31 -117.5 -66.5t-116.5 -64.5l-86 86l222 125q-33 20 -79 48t-98 55l97 79q57 -31 104 -60.5t88 -61.5q55 33 117.5 67.5t116.5 63.5l86 -86l-224 -131q190 -182 275.5 -364.5 t85.5 -383.5q0 -219 -123 -373q-137 -162 -356 -161q-223 0 -357 163h2q-123 150 -123 371zM133 514q0 -182 94 -297q100 -125 271 -125q168 0 268 125q94 123 94 297t-94 297q-102 125 -268 125q-164 0 -271 -125q-94 -119 -94 -297z" />
<glyph unicode="&#xf1;" horiz-adv-x="925" d="M39 0v1063h115v-121q53 68 136 105.5t181 37.5q180 0 282.5 -106.5t102.5 -286.5v-692h-113v686q0 133 -71.5 209t-200.5 76q-145 0 -235 -109q-39 -53 -60.5 -118.5t-21.5 -145.5v-598h-115zM160 1114q0 104 45 162q53 66 121 65q57 0 147 -61q33 -23 57.5 -36t36.5 -13 q25 0 40.5 32.5t15.5 73.5h114q0 -98 -46 -159.5t-124 -61.5q-59 0 -147 64q-33 23 -55.5 36t-38.5 13q-23 0 -38.5 -37t-15.5 -78h-112z" />
<glyph unicode="&#xf2;" horiz-adv-x="1024" d="M18 532q0 229 119 381q137 172 361 172q223 0 356 -174q121 -156 121 -379q0 -225 -121 -380q-133 -174 -358 -175q-225 0 -359 175q-119 152 -119 380zM133 532q0 -184 92 -307q100 -133 273 -133q170 0 270 133q92 127 92 307q0 178 -92 306q-100 133 -270 133 t-271 -133q-94 -119 -94 -306zM213 1438h162l301 -353h-125z" />
<glyph unicode="&#xf3;" horiz-adv-x="1024" d="M12 532q0 225 121 381q135 172 359 172q221 0 358 -174q119 -152 119 -379q0 -229 -119 -380q-137 -174 -361 -175q-225 0 -358 175q-119 152 -119 380zM127 532q0 -180 92 -307q100 -133 273 -133q170 0 270 133q92 123 92 307q0 182 -92 306q-100 133 -270 133 t-271 -133q-94 -123 -94 -306zM299 1085l319 353h166l-354 -353h-131z" />
<glyph unicode="&#xf4;" horiz-adv-x="1034" d="M20 532q0 229 119 381q137 172 361 172q223 0 356 -174q121 -156 121 -379q0 -225 -121 -380q-133 -174 -358 -175q-225 0 -359 175q-119 152 -119 380zM135 532q0 -184 92 -307q100 -133 273 -133q170 0 270 133q92 127 92 307q0 178 -92 306q-100 133 -270 133 t-271 -133q-94 -119 -94 -306zM188 1096l277 342h67l277 -342h-135l-178 213q-41 -53 -85 -109.5t-85 -103.5h-138z" />
<glyph unicode="&#xf5;" horiz-adv-x="1040" d="M25 532q0 229 118 381q137 172 361 172q223 0 356 -174q121 -156 121 -379q0 -225 -121 -380q-133 -174 -358 -175q-223 0 -361 175q-117 150 -116 380zM139 532q0 -184 92 -307q100 -133 273 -133q170 0 270 133q92 127 92 307q0 178 -92 306q-100 133 -270 133 q-174 0 -271 -133q-94 -119 -94 -306zM215 1114q0 104 45 162q53 66 121 65q57 0 147 -61q33 -23 57.5 -36t37.5 -13q25 0 40 32.5t15 73.5h115q0 -98 -46.5 -159.5t-123.5 -61.5q-59 0 -148 64q-33 23 -55.5 36t-38.5 13q-23 0 -38 -37t-15 -78h-113z" />
<glyph unicode="&#xf6;" horiz-adv-x="1038" d="M23 532q0 229 118 381q137 172 361 172q223 0 356 -174q121 -156 121 -379q0 -225 -121 -380q-133 -174 -358 -175q-223 0 -361 175q-117 150 -116 380zM137 532q0 -184 92 -307q100 -133 273 -133q170 0 270 133q92 127 92 307q0 178 -92 306q-100 133 -270 133 t-271 -133q-94 -119 -94 -306zM297 1092v231h113v-231h-113zM592 1092v231h115v-231h-115z" />
<glyph unicode="&#xf7;" horiz-adv-x="1044" d="M-14 465v117h1034v-117h-1034zM387 117q0 117 117 116q47 0 82 -33.5t35 -82.5q0 -117 -117 -117t-117 117zM387 932q0 51 32 84t85 33q47 0 82 -34t35 -83q0 -119 -117 -119t-117 119z" />
<glyph unicode="&#xf8;" horiz-adv-x="1091" d="M20 80l121 123q-41 70 -63.5 153.5t-22.5 175.5q0 225 121 381q135 172 359 172q100 0 178 -30.5t141 -98.5q23 23 44.5 48.5t37.5 42.5l82 -82l-94 -101q88 -137 88 -332q0 -229 -119 -380q-137 -174 -361 -175q-94 0 -178 36t-147 98q-27 -29 -55.5 -58.5t-51.5 -52.5z M170 532q0 -139 53 -239l549 581q-45 47 -105.5 72t-131.5 25q-172 0 -273 -133q-92 -127 -92 -306zM289 195q47 -47 110.5 -75t135.5 -28q170 0 270 133q92 123 92 307q0 141 -57 248q-141 -150 -274.5 -292t-276.5 -293z" />
<glyph unicode="&#xf9;" horiz-adv-x="901" d="M27 371v692h114v-686q0 -133 72 -209t201 -76q145 0 235 109q39 53 60.5 118.5t21.5 145.5v598h115v-1063h-115v121q-53 -68 -136 -106t-181 -38q-180 0 -283.5 106.5t-103.5 287.5zM152 1438h161l301 -353h-125z" />
<glyph unicode="&#xfa;" horiz-adv-x="903" d="M20 371v692h113v-686q0 -133 71.5 -209t201.5 -76q145 0 235 109q39 53 60.5 118.5t21.5 145.5v598h115v-1063h-115v121q-53 -68 -136 -106t-181 -38q-180 0 -283 106.5t-103 287.5zM236 1085l319 353h166l-352 -353h-133z" />
<glyph unicode="&#xfb;" horiz-adv-x="915" d="M29 371v692h114v-686q0 -133 72 -209t201 -76q145 0 235 109q39 53 60.5 118.5t21.5 145.5v598h115v-1063h-115v121q-53 -68 -136 -106t-181 -38q-180 0 -283.5 106.5t-103.5 287.5zM127 1096l276 342h68l277 -342h-136l-178 213q-41 -53 -84 -109.5t-84 -103.5h-139z " />
<glyph unicode="&#xfc;" horiz-adv-x="923" d="M33 371v692h114v-686q0 -133 72 -209t201 -76q145 0 235 109q39 53 60.5 118.5t21.5 145.5v598h115v-1063h-115v121q-53 -68 -136 -106t-181 -38q-180 0 -283.5 106.5t-103.5 287.5zM238 1092v231h112v-231h-112zM535 1092v231h112v-231h-112z" />
<glyph unicode="&#xfd;" horiz-adv-x="909" d="M-27 1063h123l361 -866q82 219 163.5 434t161.5 432h123l-471 -1239q-41 -106 -123 -139q-59 -25 -209 -25v115q135 0 181 26q31 23 59 88v-2q10 27 18.5 52.5t16.5 50.5q4 16 10 29.5t12 27.5q-49 121 -103 249t-109.5 259t-109.5 259t-104 249zM248 1128l319 351h166 l-354 -351h-131z" />
<glyph unicode="&#xfe;" horiz-adv-x="1001" d="M57 -340v1788h115l4 -533q123 170 352 170q225 0 351 -174q51 -76 77.5 -168.5t26.5 -207.5q0 -229 -102 -381q-123 -176 -353 -177q-111 0 -203 46.5t-153 128.5v-492h-115zM172 535q0 -96 22.5 -173t63.5 -137q94 -133 270 -133q178 0 263 133q77 122 77 310 q0 186 -80 307h3q-86 129 -263 129q-174 0 -268 -131q-88 -123 -88 -305z" />
<glyph unicode="&#xff;" horiz-adv-x="911" d="M-25 1063h123l361 -866q82 219 164 434t161 432h121l-469 -1239q-37 -104 -121 -139q-59 -25 -211 -25v115q137 0 183 26q33 27 57 86q10 27 18.5 52.5t16.5 50.5q4 16 10 29.5t12 27.5q-49 121 -103 249t-109.5 259t-109.5 259t-104 249zM238 1133v233h112v-233h-112z M535 1133v233h112v-233h-112z" />
<glyph unicode="&#x152;" horiz-adv-x="2043" d="M51 731q0 324 168 541q188 238 510 237q209 0 342 -108v76h920v-117h-803v-533h710v-116h-710v-594h803v-117h-920v82q-72 -55 -158 -85t-184 -30q-319 0 -508 232q-86 104 -128 238t-42 294zM168 731q0 -283 143 -457v2q154 -193 418 -192q207 0 342 154v1003 q-152 152 -342 152q-274 0 -420 -195q-141 -182 -141 -467z" />
<glyph unicode="&#x153;" horiz-adv-x="1822" d="M59 532q0 111 25 206.5t72 168.5q119 178 342 178q135 0 234 -62t149 -177q51 113 147 176t238 63q231 0 346 -180q90 -143 90 -418h-764q16 -395 328 -395q256 0 315 318h115q-16 -111 -52 -191t-88 -131q-113 -111 -290 -111q-139 0 -238.5 59.5t-150.5 170.5 q-100 -229 -379 -230q-221 0 -342 181q-96 150 -97 374zM174 532q0 -90 19.5 -167.5t54.5 -137.5q88 -135 250 -135q176 0 256 129q69 112 69 311q0 190 -71 306q-84 133 -254 133q-160 0 -250 -133q-74 -121 -74 -306zM940 600h647q-6 152 -78 252h2q-82 119 -243 119 q-147 0 -229.5 -94.5t-98.5 -276.5z" />
<glyph unicode="&#x178;" horiz-adv-x="1245" d="M-45 1477h139l512 -740q129 186 257 369.5t257 370.5h137l-593 -859v-618h-115v618q-70 100 -145.5 210t-152.5 220.5t-152.5 220t-143.5 208.5zM397 1505v238h117v-238h-117zM698 1505v238h117v-238h-117z" />
<glyph unicode="&#x2c6;" horiz-adv-x="561" d="M-41 1137l277 342h67l277 -342h-136l-178 213q-41 -51 -84 -107.5t-84 -105.5h-139z" />
<glyph unicode="&#x2dc;" horiz-adv-x="677" d="M37 1155q0 102 47 162q55 68 121 67q57 0 145 -63q72 -49 96 -49q23 0 39.5 32.5t16.5 73.5h112q0 -96 -43 -158.5t-125 -62.5q-57 0 -149 64q-66 49 -92 49q-23 0 -38 -37t-17 -78h-113z" />
<glyph unicode="&#x2000;" horiz-adv-x="950" />
<glyph unicode="&#x2001;" horiz-adv-x="1901" />
<glyph unicode="&#x2002;" horiz-adv-x="950" />
<glyph unicode="&#x2003;" horiz-adv-x="1901" />
<glyph unicode="&#x2004;" horiz-adv-x="633" />
<glyph unicode="&#x2005;" horiz-adv-x="475" />
<glyph unicode="&#x2006;" horiz-adv-x="316" />
<glyph unicode="&#x2007;" horiz-adv-x="316" />
<glyph unicode="&#x2008;" horiz-adv-x="237" />
<glyph unicode="&#x2009;" horiz-adv-x="380" />
<glyph unicode="&#x200a;" horiz-adv-x="105" />
<glyph unicode="&#x2010;" horiz-adv-x="526" d="M47 496v114h410v-114h-410z" />
<glyph unicode="&#x2011;" horiz-adv-x="526" d="M47 496v114h410v-114h-410z" />
<glyph unicode="&#x2012;" horiz-adv-x="526" d="M47 496v114h410v-114h-410z" />
<glyph unicode="&#x2013;" horiz-adv-x="1189" d="M59 496v114h1026v-114h-1026z" />
<glyph unicode="&#x2014;" horiz-adv-x="2211" d="M78 496v114h1976v-114h-1976z" />
<glyph unicode="&#x2018;" horiz-adv-x="169" d="M23 940v264q0 90 12 127q10 35 47 71t102 71v-123q-47 -29 -47 -146v-264h-114z" />
<glyph unicode="&#x2019;" horiz-adv-x="182" d="M-14 915v121q47 29 47 146v266h114v-266q0 -45 -3 -79t-11 -52q-10 -33 -48 -69t-99 -67z" />
<glyph unicode="&#x201a;" horiz-adv-x="169" d="M-14 -135q51 49 51 217v36.5t-2 45.5t-2 59.5v40.5h114v-225q0 -195 -161 -301v127z" />
<glyph unicode="&#x201c;" horiz-adv-x="428" d="M41 940v264q0 86 10 127q12 35 49 71t103 71v-123q-49 -31 -49 -146v-264h-113zM231 940v264q0 43 2.5 76t8.5 51q25 74 149 142v-123q-47 -31 -47 -146v-264h-113z" />
<glyph unicode="&#x201d;" horiz-adv-x="434" d="M25 915v121q47 29 47 146v266h114v-266q0 -43 -3 -77t-9 -52q-23 -72 -149 -138zM215 915v121q47 29 47 146v266h115v-266q0 -43 -3 -77t-9 -52q-23 -72 -150 -138z" />
<glyph unicode="&#x201e;" horiz-adv-x="430" d="M25 -135q51 49 51 217v36.5t-2 45.5t-2 59.5v40.5h114v-225q0 -195 -161 -301v127zM215 -135q51 49 51 217v36.5t-2 45.5t-2 59.5v40.5h115v-225q0 -195 -162 -301v127z" />
<glyph unicode="&#x2022;" horiz-adv-x="845" d="M31 725q0 158 108 266q111 111 269 111q152 0 266 -111q110 -110 110 -266q0 -158 -110 -270q-117 -113 -266 -113q-158 0 -271 113q-106 109 -106 270z" />
<glyph unicode="&#x2026;" horiz-adv-x="1568" d="M66 0v264h114v-264h-114zM698 0v264h115v-264h-115zM1333 0v264h113v-264h-113z" />
<glyph unicode="&#x202f;" horiz-adv-x="380" />
<glyph unicode="&#x2039;" horiz-adv-x="296" d="M-33 526v56l273 368v-194l-150 -203q35 -49 75 -101.5t75 -99.5v-200z" />
<glyph unicode="&#x203a;" horiz-adv-x="294" d="M45 152v200l150 201q-35 51 -75 103.5t-75 99.5v194l272 -368v-56z" />
<glyph unicode="&#x205f;" horiz-adv-x="475" />
<glyph unicode="&#x2122;" horiz-adv-x="1775" d="M33 1333v115h684v-115h-285v-753h-115v753h-284zM819 580v868h129l283 -680q72 170 143.5 342t138.5 338h129v-868h-114l-4 594q-61 -152 -125 -300.5t-123 -293.5h-88l-254 602v-602h-115z" />
<glyph unicode="&#x25fc;" horiz-adv-x="1064" d="M0 0v1065h1065v-1065h-1065z" />
</font>
</defs>
</svg>
